# xmcd CD database file
#
# Track frame offsets:
#	150
#	26641
#	53452
#	74120
#	81400
#	105698
#	128400
#	146913
#	171790
#	190807
#	196976
#	207124
#
# Disc length: 3180 seconds
#
# Revision: 0
# Processed by: cddbd v1.5.2PL0 Copyright (c) Steve Scherf et al.
# Submitted via: CDex 1.51
#
DISCID=ac0c6a0c
DTITLE=Pernille Bevort - Radio Bevort
DYEAR=2006
DGENRE=Jazz
TTITLE0=Mashed Potatoes
TTITLE1=Jazz And Drag
TTITLE2=Sometimes
TTITLE3=Urban Camouflage
TTITLE4=Action Woman
TTITLE5=Had A Dream
TTITLE6=Ballad For Dreamers
TTITLE7=Carochi
TTITLE8=Pigeons
TTITLE9=Spam Alert
TTITLE10=Easy Now
TTITLE11=Mr. Jones
EXTD=YEAR: 2006
EXTT0=
EXTT1=
EXTT2=
EXTT3=
EXTT4=
EXTT5=
EXTT6=
EXTT7=
EXTT8=
EXTT9=
EXTT10=
EXTT11=
PLAYORDER=
